<?xml version="1.0" standalone="no"?>
<!DOCTYPE svg PUBLIC "-//W3C//DTD SVG 20010904//EN"
 "http://www.w3.org/TR/2001/REC-SVG-20010904/DTD/svg10.dtd">
<svg version="1.0" xmlns="http://www.w3.org/2000/svg"
 width="50.000000pt" height="50.000000pt" viewBox="0 0 500.000000 500.000000"
 preserveAspectRatio="xMidYMid meet">

<g transform="translate(0.000000,500.000000) scale(0.100000,-0.100000)"
fill="#000000" stroke="none">
<path d="M530 4451 c0 -4 25 -11 56 -14 30 -3 67 -13 81 -22 53 -35 53 -37 53
-672 0 -540 -1 -591 -18 -623 -21 -43 -72 -70 -129 -70 -24 0 -43 -4 -43 -10
0 -6 108 -10 305 -10 197 0 305 4 305 10 0 6 -21 10 -46 10 -25 0 -62 8 -81
17 -58 27 -63 51 -63 315 l1 233 59 63 59 63 178 -267 c98 -147 188 -280 201
-295 28 -34 28 -38 -8 -96 -112 -183 -133 -521 -47 -755 52 -144 151 -260 276
-327 197 -105 501 -105 788 -1 l31 11 4 247 c3 240 4 248 26 279 13 18 35 36
50 39 86 19 54 22 -203 23 -184 0 -275 -3 -265 -9 8 -5 28 -10 43 -10 40 0 84
-26 102 -60 12 -24 15 -77 15 -294 l0 -264 -72 -12 c-42 -7 -111 -10 -163 -7
-242 14 -364 139 -416 427 -27 148 -13 616 19 667 5 7 27 7 62 2 80 -11 200
-11 200 1 0 6 -7 10 -16 10 -9 0 -32 12 -52 26 -40 29 -122 124 -122 142 0 21
103 102 157 122 80 30 194 37 266 16 113 -33 163 -107 174 -258 l6 -78 31 0
c177 0 235 181 91 280 -157 108 -535 116 -734 16 l-49 -24 -75 111 c-41 62
-136 201 -211 310 l-136 199 168 186 c253 282 290 314 378 332 30 6 54 16 54
21 0 11 -447 12 -454 1 -3 -5 32 -13 77 -19 120 -16 141 -53 81 -143 -13 -19
-146 -172 -296 -340 l-273 -306 -3 349 c-2 265 1 355 10 374 20 41 59 64 121
70 31 3 57 10 57 14 0 5 -137 9 -305 9 -168 0 -305 -4 -305 -9z"/>
<path d="M2355 3848 c-14 -11 -25 -30 -25 -44 0 -31 33 -64 63 -64 13 0 32 9
42 20 20 22 6 27 -24 8 -25 -15 -51 4 -51 39 0 30 24 40 56 23 28 -15 42 -7
25 14 -19 23 -59 25 -86 4z"/>
<path d="M1410 3800 l0 -60 35 0 c19 0 35 5 35 10 0 6 -9 10 -20 10 -11 0 -20
7 -20 15 0 8 9 15 20 15 11 0 20 5 20 10 0 6 -9 10 -20 10 -11 0 -20 7 -20 15
0 8 9 15 20 15 11 0 20 5 20 10 0 6 -16 10 -35 10 l-35 0 0 -60z"/>
<path d="M1646 3852 c-2 -4 -4 -31 -3 -60 0 -36 5 -52 14 -52 7 0 13 10 14 23
l0 22 16 -22 c8 -13 22 -23 29 -23 12 0 11 5 -2 25 -9 14 -12 25 -6 25 17 0
25 39 12 55 -13 16 -65 21 -74 7z m54 -27 c0 -8 -7 -15 -15 -15 -8 0 -15 7
-15 15 0 8 7 15 15 15 8 0 15 -7 15 -15z"/>
<path d="M1890 3800 c0 -66 17 -83 22 -22 l3 37 20 -37 c29 -57 45 -49 45 22
0 66 -17 83 -22 23 l-3 -38 -20 38 c-29 56 -45 48 -45 -23z"/>
<path d="M2626 3844 c-36 -35 -7 -104 42 -104 29 0 62 34 62 63 0 49 -70 76
-104 41z m58 -10 c22 -9 20 -51 -3 -64 -34 -18 -67 30 -39 58 14 14 20 14 42
6z"/>
<path d="M2890 3812 c0 -26 5 -53 12 -60 17 -17 54 -15 72 4 21 21 22 104 1
104 -10 0 -13 -10 -11 -36 1 -19 -3 -42 -9 -51 -10 -14 -13 -14 -28 2 -9 9
-17 32 -17 51 0 19 -4 34 -10 34 -5 0 -10 -22 -10 -48z"/>
<path d="M3150 3800 c0 -47 3 -60 15 -60 11 0 15 11 15 38 l1 37 20 -37 c30
-59 49 -50 49 22 0 47 -3 60 -15 60 -11 0 -15 -11 -15 -37 l-1 -38 -20 38
c-30 58 -49 49 -49 -23z"/>
<path d="M3400 3850 c0 -5 9 -10 20 -10 17 0 20 -7 20 -50 0 -27 5 -50 10 -50
6 0 10 23 10 50 0 43 3 50 20 50 11 0 20 5 20 10 0 6 -22 10 -50 10 -27 0 -50
-4 -50 -10z"/>
<path d="M3669 3826 c12 -18 21 -45 21 -60 0 -14 5 -26 10 -26 6 0 10 12 10
28 0 15 9 38 20 52 11 14 20 28 20 33 0 13 -23 7 -36 -10 -13 -17 -15 -17 -25
0 -5 9 -17 17 -25 17 -13 0 -12 -6 5 -34z"/>
<path d="M2560 2800 l0 -60 35 0 c19 0 35 5 35 10 0 6 -9 10 -19 10 -10 0 -21
7 -25 15 -4 11 1 15 19 15 31 0 33 17 3 22 -13 2 -23 8 -23 13 0 6 10 11 23
13 35 5 26 22 -13 22 l-35 0 0 -60z"/>
<path d="M2794 2846 c-9 -24 1 -99 14 -104 7 -2 12 6 13 20 l0 23 16 -22 c8
-13 22 -23 30 -23 12 0 12 3 -1 22 -14 20 -14 24 0 39 12 14 13 22 4 38 -12
24 -67 29 -76 7z m54 -23 c-4 -22 -22 -20 -26 1 -2 10 3 16 13 16 10 0 15 -7
13 -17z"/>
<path d="M3040 2800 c0 -33 4 -60 10 -60 6 0 10 27 10 60 0 33 -4 60 -10 60
-6 0 -10 -27 -10 -60z"/>
<path d="M3245 2808 c-11 -29 -21 -56 -23 -60 -2 -4 3 -8 11 -8 8 0 17 7 21
15 3 8 15 15 26 15 11 0 23 -7 26 -15 4 -8 12 -15 19 -15 18 0 -28 114 -47
118 -9 2 -21 -17 -33 -50z m45 -10 c0 -5 -6 -8 -14 -8 -9 0 -12 7 -9 21 4 16
8 17 14 7 5 -7 9 -16 9 -20z"/>
<path d="M3480 2850 c0 -5 9 -10 20 -10 17 0 20 -7 20 -50 0 -27 5 -50 10 -50
6 0 10 23 10 50 0 43 3 50 20 50 11 0 20 5 20 10 0 6 -22 10 -50 10 -27 0 -50
-4 -50 -10z"/>
<path d="M3732 2803 c2 -34 8 -58 16 -61 7 -2 12 6 13 20 l0 23 16 -22 c8 -13
22 -23 29 -23 12 0 11 5 -2 25 -9 14 -12 25 -6 25 17 0 25 39 12 55 -7 8 -28
15 -47 15 l-34 0 3 -57z m56 20 c-4 -22 -22 -20 -26 1 -2 10 3 16 13 16 10 0
15 -7 13 -17z"/>
<path d="M3972 2803 c4 -81 28 -85 28 -4 0 48 -3 61 -15 61 -13 0 -15 -11 -13
-57z"/>
<path d="M4177 2842 c-34 -38 -5 -102 46 -102 13 0 32 9 42 20 20 22 7 27 -26
9 -26 -13 -49 4 -49 38 0 30 24 40 56 23 30 -17 46 -3 20 16 -27 19 -70 18
-89 -4z"/>
<path d="M4451 2846 c-19 -23 -6 -45 29 -52 16 -4 30 -13 30 -20 0 -17 -32
-18 -48 -2 -17 17 -28 2 -12 -17 16 -19 64 -19 80 0 17 21 5 44 -30 56 -40 14
-39 33 1 25 22 -4 29 -2 27 7 -7 18 -63 21 -77 3z"/>
<path d="M2767 2673 c-18 -18 -5 -45 29 -59 28 -12 34 -18 25 -27 -9 -9 -16
-9 -31 1 -30 19 -43 15 -30 -8 19 -36 90 -23 90 16 0 18 -9 27 -35 38 -45 19
-45 30 0 22 29 -6 34 -4 29 9 -6 15 -64 22 -77 8z"/>
<path d="M3024 2654 c-23 -34 -9 -75 29 -88 53 -19 97 35 71 86 -20 39 -76 40
-100 2z m74 -6 c16 -16 15 -33 -4 -52 -21 -21 -54 -4 -54 29 0 32 35 46 58 23z"/>
<path d="M3307 2662 c-34 -38 -5 -102 46 -102 13 0 32 9 42 20 20 22 6 27 -24
8 -25 -15 -51 4 -51 39 0 30 24 40 56 23 28 -16 42 -7 24 15 -17 21 -73 19
-93 -3z"/>
<path d="M3570 2620 c0 -47 3 -60 15 -60 12 0 15 13 15 60 0 47 -3 60 -15 60
-12 0 -15 -13 -15 -60z"/>
<path d="M3760 2620 l0 -60 35 0 c19 0 35 5 35 10 0 6 -9 10 -20 10 -11 0 -20
7 -20 15 0 8 9 15 20 15 11 0 20 5 20 10 0 6 -9 10 -20 10 -11 0 -20 7 -20 15
0 8 9 15 20 15 11 0 20 5 20 10 0 6 -16 10 -35 10 l-35 0 0 -60z"/>
<path d="M3990 2670 c0 -5 7 -10 15 -10 11 0 15 -12 15 -50 0 -38 4 -50 15
-50 11 0 15 12 15 50 0 38 4 50 15 50 8 0 15 5 15 10 0 6 -20 10 -45 10 -25 0
-45 -4 -45 -10z"/>
<path d="M4249 2654 c12 -15 21 -41 21 -60 0 -24 5 -34 15 -34 10 0 15 10 15
31 0 17 9 44 21 60 17 24 18 29 5 29 -8 0 -20 -9 -27 -21 l-11 -21 -14 21 c-9
12 -22 21 -30 21 -12 0 -11 -5 5 -26z"/>
</g>
</svg>
